# The Great Editor v0.0.1
mtllib floor_4.mtl
o floor_4
v 10.580057024062732 -4.711640503160217 0
v 10.580057024062732 -4.711640503160217 -0.1
v 7.516377484427665 -4.939700936088934 0
v 7.516377484427665 -4.939700936088934 -0.1
v 8.337649007818408 -5.354400135342055 0
v 8.337649007818408 -5.354400135342055 -0.1
v 8.256337929188849 -5.492633201759762 0
v 8.256337929188849 -5.492633201759762 -0.1
v 7.899034785438945 -6.30405088907296 0
v 7.899034785438945 -6.30405088907296 -0.1
v 5.566960247086938 -10.854085094363494 0
v 5.566960247086938 -10.854085094363494 -0.1
v 7.887470919389182 -11.50794299037494 0
v 7.887470919389182 -11.50794299037494 -0.1
v 10.789239403337737 -11.952567714141905 0
v 10.789239403337737 -11.952567714141905 -0.1
v 13.709716631041763 -12.004054854196562 0
v 13.709716631041763 -12.004054854196562 -0.1
v 19.461766458884213 -11.540704455684297 0
v 19.461766458884213 -11.540704455684297 -0.1
v 22.494580804070203 -11.2739313145231 0
v 22.494580804070203 -11.2739313145231 -0.1
v 22.780071154481785 -8.681068739912664 0
v 22.780071154481785 -8.681068739912664 -0.1
v 23.1498185757523 -6.032037606561247 0
v 23.1498185757523 -6.032037606561247 -0.1
v 19.429004993574853 -6.1162777464303515 0
v 19.429004993574853 -6.1162777464303515 -0.1
v 18.111765519775993 -6.102919195459249 0
v 18.111765519775993 -6.102919195459249 -0.1
v 18.130034057796042 -6.765496551230029 0
v 18.130034057796042 -6.765496551230029 -0.1
v 10.624399286411677 -6.978979401920319 0
v 10.624399286411677 -6.978979401920319 -0.1
vt 10.580057024062732 -4.711640503160217 0
vt 7.516377484427665 -4.939700936088934 0
vt 8.337649007818408 -5.354400135342055 0
vt 8.256337929188849 -5.492633201759762 0
vt 7.899034785438945 -6.30405088907296 0
vt 5.566960247086938 -10.854085094363494 0
vt 7.887470919389182 -11.50794299037494 0
vt 10.789239403337737 -11.952567714141905 0
vt 13.709716631041763 -12.004054854196562 0
vt 19.461766458884213 -11.540704455684297 0
vt 22.494580804070203 -11.2739313145231 0
vt 22.780071154481785 -8.681068739912664 0
vt 23.1498185757523 -6.032037606561247 0
vt 19.429004993574853 -6.1162777464303515 0
vt 18.111765519775993 -6.102919195459249 0
vt 18.130034057796042 -6.765496551230029 0
vt 10.624399286411677 -6.978979401920319 0
vn 0 0 1
vn 0 0 -1
usemtl floor_4
s off
f 3/2/1 5/3/1 1/1/1
f 2/1/2 6/3/2 4/2/2
f 1/1/1 5/3/1 33/17/1
f 34/17/2 6/3/2 2/1/2
f 25/13/1 27/14/1 23/12/1
f 24/12/2 28/14/2 26/13/2
f 17/9/1 19/10/1 31/16/1
f 32/16/2 20/10/2 18/9/2
f 17/9/1 31/16/1 33/17/1
f 34/17/2 32/16/2 18/9/2
f 17/9/1 33/17/1 15/8/1
f 16/8/2 34/17/2 18/9/2
f 15/8/1 33/17/1 13/7/1
f 14/7/2 34/17/2 16/8/2
f 13/7/1 33/17/1 9/5/1
f 10/5/2 34/17/2 14/7/2
f 13/7/1 9/5/1 11/6/1
f 12/6/2 10/5/2 14/7/2
f 9/5/1 33/17/1 7/4/1
f 8/4/2 34/17/2 10/5/2
f 7/4/1 33/17/1 5/3/1
f 6/3/2 34/17/2 8/4/2
f 29/15/1 31/16/1 27/14/1
f 28/14/2 32/16/2 30/15/2
f 27/14/1 31/16/1 19/10/1
f 20/10/2 32/16/2 28/14/2
f 27/14/1 19/10/1 23/12/1
f 24/12/2 20/10/2 28/14/2
f 23/12/1 19/10/1 21/11/1
f 22/11/2 20/10/2 24/12/2
